<svg xmlns="http://www.w3.org/2000/svg" viewBox="0 0 960 460" role="img" aria-labelledby="title desc">
  <title id="title">C0nvR3 Lab workspace preview</title>
  <desc id="desc">A dark security research workspace with explorer, editor and terminal panels.</desc>
  <rect width="960" height="460" fill="#0d1117"/>
  <rect x="24" y="24" width="912" height="412" rx="8" fill="#111820" stroke="#30363d"/>
  <rect x="24" y="24" width="912" height="40" rx="8" fill="#1f242d"/>
  <text x="48" y="50" fill="#c9d1d9" font-family="monospace" font-size="15">File   Edit   View   Navigate   Help</text>
  <text x="730" y="50" fill="#f0f6fc" font-family="monospace" font-size="15" font-weight="bold">C0nvR3 Lab</text>
  <rect x="24" y="64" width="196" height="336" fill="#161b22"/>
  <text x="48" y="98" fill="#8b949e" font-family="monospace" font-size="13">EXPLORER</text>
  <text x="48" y="132" fill="#c9d1d9" font-family="monospace" font-size="14">⌄ workspace/</text>
  <text x="65" y="160" fill="#58a6ff" font-family="monospace" font-size="14">⌁ posts/</text>
  <text x="65" y="188" fill="#58a6ff" font-family="monospace" font-size="14">⌁ research/</text>
  <text x="65" y="216" fill="#58a6ff" font-family="monospace" font-size="14">⌁ projects/</text>
  <rect x="220" y="286" width="716" height="114" fill="#090d12" stroke="#30363d"/>
  <text x="244" y="318" fill="#7ee787" font-family="monospace" font-size="14">root@lab</text>
  <text x="316" y="318" fill="#c9d1d9" font-family="monospace" font-size="14">:~$ help</text>
  <text x="244" y="348" fill="#8b949e" font-family="monospace" font-size="13">commands: blog · research · projects · ctf · about</text>
  <text x="264" y="112" fill="#8b949e" font-family="monospace" font-size="13">posts/workspace-preview/index.md</text>
  <text x="264" y="152" fill="#f0f6fc" font-family="monospace" font-size="26" font-weight="bold">Security Research Workspace</text>
  <rect x="264" y="174" width="512" height="9" rx="4" fill="#30363d"/>
  <rect x="264" y="196" width="610" height="9" rx="4" fill="#30363d"/>
  <rect x="264" y="218" width="448" height="9" rx="4" fill="#30363d"/>
  <rect x="24" y="400" width="912" height="36" rx="0" fill="#007acc"/>
  <text x="48" y="423" fill="#eef7ff" font-family="monospace" font-size="12">main</text>
  <text x="792" y="423" fill="#eef7ff" font-family="monospace" font-size="12">UTF-8 · Markdown · Hugo</text>
</svg>
